<?xml version="1.0" standalone="no"?>
<!DOCTYPE svg PUBLIC "-//W3C//DTD SVG 20010904//EN"
 "http://www.w3.org/TR/2001/REC-SVG-20010904/DTD/svg10.dtd">
<svg version="1.0" xmlns="http://www.w3.org/2000/svg"
 width="501.000000pt" height="501.000000pt" viewBox="0 0 501.000000 501.000000"
 preserveAspectRatio="xMidYMid meet">
<metadata>
Created by potrace 1.14, written by Peter Selinger 2001-2017
</metadata>
<g transform="translate(0.000000,501.000000) scale(0.100000,-0.100000)"
fill="#000000" stroke="none">
<path d="M2300 4985 c-120 -27 -210 -75 -292 -156 -38 -36 -70 -63 -73 -59 -2
4 -19 11 -37 15 -18 4 -40 10 -48 12 -8 3 -55 5 -105 6 -129 1 -214 -31 -324
-123 -63 -52 -95 -100 -106 -161 -6 -34 -11 -38 -86 -67 -148 -58 -252 -146
-314 -264 -87 -166 -86 -367 5 -553 63 -131 75 -147 201 -280 91 -95 146 -160
300 -355 163 -205 167 -212 174 -250 21 -120 53 -245 100 -385 67 -203 78
-228 112 -255 26 -20 35 -22 123 -16 52 3 104 8 115 10 11 2 47 7 80 11 32 4
66 8 75 10 8 1 38 6 65 9 301 39 1048 236 1118 295 29 25 30 25 24 105 -3 45
-8 91 -11 102 -2 12 -7 39 -10 60 -7 40 -42 246 -51 297 -12 68 -15 85 -21
127 -9 60 -10 51 20 165 23 84 66 267 81 340 3 11 7 31 10 45 3 14 7 34 9 45
3 11 11 54 20 95 8 41 18 91 21 110 9 55 17 103 22 125 2 11 7 61 10 111 13
214 -74 418 -217 506 -47 28 -65 33 -132 37 -53 2 -92 -2 -124 -13 -26 -9 -49
-16 -50 -16 -1 0 -19 27 -39 59 -69 114 -174 203 -286 242 -77 27 -270 35
-359 14z m290 -251 c86 -41 168 -117 237 -223 68 -104 83 -118 100 -96 8 12 9
25 1 46 -18 52 -6 62 68 56 103 -8 178 -72 228 -195 29 -74 25 -349 -9 -523
-3 -13 -9 -49 -15 -79 -10 -52 -13 -71 -25 -122 -3 -13 -7 -34 -10 -48 -52
-265 -54 -270 -109 -270 -23 0 -27 3 -21 18 30 79 40 350 16 425 -11 34 -33
48 -44 30 -3 -5 -8 -78 -11 -163 -9 -210 -16 -304 -24 -312 -4 -4 -30 -10 -58
-13 l-51 -7 -6 68 c-3 49 -10 71 -23 81 -32 23 -43 -1 -39 -87 l3 -78 -87 -16
c-47 -9 -88 -16 -91 -16 -3 0 -6 55 -6 123 -2 107 -7 141 -42 280 -22 87 -46
165 -53 173 -24 29 -66 8 -54 -28 2 -7 6 -42 10 -78 8 -85 12 -115 35 -235 24
-127 34 -241 22 -249 -5 -3 -24 -8 -43 -11 -19 -3 -85 -17 -147 -31 -63 -13
-118 -24 -122 -24 -5 0 -24 30 -43 67 -36 73 -67 102 -84 81 -10 -12 3 -64 34
-138 12 -28 2 -40 -33 -40 -53 0 -259 200 -347 337 -54 85 -98 74 -56 -14 31
-64 106 -161 198 -256 81 -83 90 -97 69 -98 -23 -1 -42 -6 -130 -33 -47 -14
-91 -26 -97 -26 -23 0 -97 79 -260 279 -93 113 -181 217 -196 231 -15 14 -44
50 -65 81 -135 198 -140 429 -11 576 55 63 161 121 251 137 88 15 130 32 130
53 0 16 -58 43 -90 43 l-21 0 22 40 c39 69 152 148 236 165 82 17 207 -2 268
-39 39 -24 54 -26 64 -7 8 14 5 23 -9 39 -19 21 -19 21 13 48 79 67 239 114
372 110 77 -2 101 -7 155 -32z m549 -1717 c5 -13 12 -41 15 -61 4 -21 8 -41
10 -45 2 -3 7 -51 11 -106 4 -55 8 -111 10 -125 17 -121 17 -135 -3 -153 -24
-22 -442 -132 -650 -172 -76 -14 -180 -35 -232 -46 -131 -28 -134 -29 -211
-39 -86 -10 -104 -6 -128 34 -37 59 -83 190 -97 276 -3 19 -8 38 -10 41 -2 3
-6 21 -9 40 -3 19 -10 50 -14 70 l-8 36 76 18 c42 10 81 20 86 21 92 22 364
87 376 89 9 2 61 13 115 25 55 12 110 24 124 26 14 3 70 14 125 25 55 11 116
22 135 25 19 3 41 7 48 9 7 3 31 7 55 10 23 4 58 10 77 15 65 15 90 12 99 -13z"/>
<path d="M3036 1940 c-100 -32 -162 -128 -150 -235 13 -116 102 -195 221 -195
54 0 99 18 146 59 105 93 83 281 -41 350 -47 25 -130 36 -176 21z m102 -134
c49 -17 64 -103 24 -139 -80 -70 -196 36 -126 114 31 35 56 41 102 25z"/>
<path d="M1456 1656 c-111 -38 -177 -98 -206 -189 -22 -71 6 -189 59 -243 18
-19 17 -20 -25 -65 -49 -54 -74 -123 -74 -209 0 -98 37 -171 117 -231 82 -61
143 -79 268 -80 186 0 333 94 370 239 26 99 -7 226 -75 289 l-34 32 27 38 c43
63 56 104 53 174 -4 100 -53 172 -154 223 -94 47 -224 56 -326 22z m199 -172
c112 -53 80 -203 -47 -218 -36 -5 -105 21 -126 46 -61 74 3 187 106 188 19 0
49 -7 67 -16z m-10 -405 c119 -30 142 -175 35 -229 -112 -57 -259 13 -246 118
8 58 32 86 93 108 47 16 63 17 118 3z"/>
<path d="M3894 1665 c-193 -41 -354 -196 -398 -383 -20 -88 -14 -232 14 -307
66 -175 210 -295 395 -330 60 -11 191 -5 245 11 30 9 80 29 110 45 62 33 150
108 150 129 0 7 -30 43 -67 81 l-66 68 -49 -44 c-69 -62 -133 -84 -233 -81
-62 3 -90 9 -124 27 -176 96 -209 363 -63 498 52 48 112 72 195 78 91 6 160
-18 233 -82 l52 -45 53 62 c30 34 60 67 67 74 19 20 15 29 -29 69 -130 117
-313 166 -485 130z"/>
<path d="M2527 1534 c-1 -1 -26 -4 -55 -7 -113 -12 -229 -92 -286 -198 -72
-131 -72 -357 0 -488 54 -101 154 -174 266 -197 33 -6 159 -7 187 0 142 33
247 123 292 250 39 113 41 250 4 376 -29 97 -142 213 -235 240 -53 16 -164 31
-173 24z m110 -212 c53 -29 92 -107 100 -202 15 -179 -74 -307 -206 -294 -107
11 -173 106 -176 254 -3 138 56 240 150 260 36 7 102 -2 132 -18z"/>
<path d="M595 1415 l-1 -95 51 -1 c27 0 71 -1 97 -1 l47 1 -1 -330 c0 -182 2
-333 5 -336 5 -5 163 -8 202 -4 6 1 10 152 10 431 l0 430 -205 0 -205 0 0 -95z"/>
<path d="M2037 108 c1 -51 2 -96 2 -100 1 -5 214 -8 474 -8 l472 0 0 100 0
100 -475 0 -475 0 2 -92z"/>
</g>
</svg>
